<svg width="161" height="18" viewBox="0 0 161 18" fill="none" xmlns="http://www.w3.org/2000/svg">
<g clip-path="url(#clip0_1_93)">
<path fill-rule="evenodd" clip-rule="evenodd" d="M39.4226 1.22144H48.7554C54.1141 1.22144 56.4972 2.8811 56.4972 7.41161V10.7538C56.4972 15.1158 54.8048 17.1797 49.4477 17.1797H39.4226V1.22144ZM48.9551 12.8849C51.2956 12.8849 52.1484 11.9716 52.1484 10.4969V7.56546C52.1484 5.75686 51.1696 5.38204 48.9551 5.38204H43.4229V12.8849H48.9551Z" fill="#B4B4B4"/>
<path fill-rule="evenodd" clip-rule="evenodd" d="M85.2384 1.22144H94.5711C99.9282 1.22144 102.311 2.8811 102.313 7.41161V10.7538C102.313 15.1158 100.621 17.1797 95.2635 17.1797H85.2384V1.22144ZM94.7708 12.8849C97.1114 12.8849 97.9641 11.9716 97.9641 10.4969V7.56546C97.9641 5.75686 96.9837 5.38204 94.7708 5.38204H89.237V12.8849H94.7708Z" fill="#B4B4B4"/>
<path fill-rule="evenodd" clip-rule="evenodd" d="M62.9198 1.22144H58.6642V17.1797H62.9198V1.22144ZM64.2488 17.1797L70.8792 1.22144H77.3706L84.0223 17.1797H79.4443L78.2757 14.4349H69.835L68.7498 17.1797H64.2488ZM73.6994 5.27729L71.4652 10.5296H76.6259L74.3377 5.27729H73.6994Z" fill="#B4B4B4"/>
<path fill-rule="evenodd" clip-rule="evenodd" d="M147.503 1.22144H153.995L160.647 17.1797H156.069L154.9 14.4349H146.461L145.376 17.1797H140.875L147.503 1.22144ZM150.324 5.27729L148.089 10.5296H153.25L150.964 5.27729H150.324Z" fill="#B4B4B4"/>
<path fill-rule="evenodd" clip-rule="evenodd" d="M104.212 6.94511C104.212 2.02997 107.884 1.09375 113.061 1.09375C118.238 1.09375 121.91 2.02997 121.91 6.94511V11.456C121.91 16.3728 118.238 17.3073 113.061 17.3073C107.884 17.3073 104.212 16.3711 104.212 11.456V6.94511ZM113.151 12.8325C116.512 12.8325 117.707 12.6279 117.707 10.541V7.39031C117.707 5.32146 116.512 5.11687 113.151 5.11687C109.791 5.11687 108.693 5.32146 108.596 7.39031V10.541C108.693 12.6279 109.791 12.8325 113.151 12.8325Z" fill="#B4B4B4"/>
<path fill-rule="evenodd" clip-rule="evenodd" d="M133.562 1.21973C137.243 1.28356 139.629 2.90557 139.629 6.39348C139.629 6.76143 139.635 7.10253 139.641 7.41914C139.676 9.39112 139.694 10.4128 138.122 11.0517C139.524 11.0517 139.611 12.3545 139.611 14.1631V17.178H135.354V14.9438C135.396 13.7523 135.099 12.9437 133.822 12.9437H127.666V17.178H123.82V1.21973H133.562ZM127.666 8.92225H133.555C135.356 8.95171 135.266 7.93693 135.266 7.93693V6.44749C135.266 5.11682 133.555 5.34923 133.555 5.34923H127.666V8.92225Z" fill="#B4B4B4"/>
<path d="M26.9081 0.779447C26.9081 0.779447 20.3857 6.20035 0.646545 0.694336C0.646545 0.694336 20.0469 6.20035 25.2141 17.0438H35.6352C35.6352 17.0438 32.5009 12.5542 23.6903 7.89438C23.6903 7.89438 32.8397 6.53915 35.7204 4.6749L26.9081 0.779447Z" fill="#B4B4B4"/>
</g>
<defs>
<clipPath id="clip0_1_93">
<rect width="160" height="16.64" fill="white" transform="translate(0.646545 0.680054)"/>
</clipPath>
</defs>
</svg>
