<svg width="60" height="40" viewBox="0 0 60 40" fill="none" xmlns="http://www.w3.org/2000/svg">
<path d="M38.8322 26.2358L26.6326 5.03402L35.3968 0L50.5669 26.2358H38.8322Z" fill="#B4B4B4"/>
<path d="M6.33789 23.2653L15.1021 18.1973L19.7393 26.2358H8.03857L6.33789 23.2653Z" fill="#B4B4B4"/>
<path d="M23.5374 39.762H26.0317V29.6713H23.5374V39.762Z" fill="#B4B4B4"/>
<path d="M54.7959 39.9999C52.0068 39.9999 50.3288 38.56 50.2381 36.5305H52.8685C52.8685 37.1655 53.2653 38.0952 54.966 38.1292C56.0998 38.1292 56.6327 37.4602 56.6327 36.9614C56.5646 36.1677 55.5669 36.0997 54.5011 35.9296C53.4354 35.7596 52.5284 35.5668 51.8708 35.2267C51.0317 34.7958 50.4649 33.8661 50.4649 32.8004C50.4649 30.9977 52.0295 29.5691 54.6372 29.5691C57.1655 29.5691 58.7642 30.8956 58.9343 32.8684H56.3946C56.3719 32.3355 56.2699 31.4965 54.7732 31.4965C53.7642 31.4965 53.0952 31.7006 53.0386 32.4036C53.0386 33.4353 55.1361 33.3673 56.7687 33.7981C58.3333 34.1949 59.3311 35.17 59.3311 36.5305C59.3311 39.0362 57.3016 39.9999 54.7959 39.9999Z" fill="#B4B4B4"/>
<path d="M16.6099 14.263L25.3741 9.2063L35.204 26.2358H26.0317V28.7301H23.5374V26.2244L16.6099 14.263Z" fill="#B4B4B4"/>
<path fill-rule="evenodd" clip-rule="evenodd" d="M16.8367 40C13.9342 40 11.5759 37.6304 11.5759 34.7619C11.5759 31.8594 13.9342 29.5692 16.8367 29.5692C17.9365 29.5692 18.9342 29.864 19.8072 30.4649V26.2358H22.3016V39.7619H19.8072V39.093C18.9342 39.6599 17.9365 40 16.8367 40ZM13.9682 34.7619C13.9682 36.3265 15.3061 37.6304 16.9047 37.6304C18.4694 37.6304 19.8072 36.3265 19.8072 34.7619C19.8072 33.1973 18.4694 31.8594 16.9047 31.8594C15.3061 31.8594 13.9682 33.1973 13.9682 34.7619Z" fill="#B4B4B4"/>
<path fill-rule="evenodd" clip-rule="evenodd" d="M35.2721 26.2358H37.7324V39.7619H35.2721V39.093C34.4331 39.6599 33.4014 40 32.2676 40C29.3991 40 27.0408 37.6304 27.0408 34.7619C27.0408 31.8594 29.3991 29.5692 32.2676 29.5692C33.4014 29.5692 34.3991 29.864 35.2721 30.4649V26.2358ZM29.4671 34.7619C29.4671 36.3265 30.805 37.6304 32.3356 37.6304C33.9343 37.6304 35.2721 36.3265 35.2721 34.7619C35.2721 33.1973 33.9343 31.8594 32.3356 31.8594C30.805 31.8594 29.4671 33.1973 29.4671 34.7619Z" fill="#B4B4B4"/>
<path fill-rule="evenodd" clip-rule="evenodd" d="M43.7982 39.9999C40.941 39.9999 38.5714 37.6303 38.5714 34.7618C38.5714 31.8593 40.941 29.5691 43.7982 29.5691C44.8979 29.5691 45.9297 29.8639 46.7687 30.4648V29.6598H49.263V39.7618H46.7687V39.0929C45.9297 39.6598 44.932 39.9999 43.7982 39.9999ZM40.9977 34.7618C40.9977 36.3264 42.3356 37.6303 43.9002 37.6303C45.4648 37.6303 46.7687 36.3264 46.7687 34.7618C46.7687 33.1972 45.4648 31.8593 43.9002 31.8593C42.3356 31.8593 40.9977 33.1972 40.9977 34.7618Z" fill="#B4B4B4"/>
<path fill-rule="evenodd" clip-rule="evenodd" d="M2.40363 34.7618C2.40363 36.3264 3.7415 37.6303 5.30612 37.6303C6.90476 37.6303 8.24263 36.3264 8.24263 34.7618C8.24263 33.1972 6.90476 31.8593 5.30612 31.8593C3.7415 31.8593 2.40363 33.1972 2.40363 34.7618ZM5.23809 39.9999C2.36961 39.9999 0 37.6303 0 34.7618C0 31.8593 2.36961 29.5691 5.23809 29.5691C6.33787 29.5691 7.36961 29.8639 8.24263 30.4648V29.6598H10.7029V39.7618H8.24263V39.0929C7.40363 39.6598 6.37188 39.9999 5.23809 39.9999Z" fill="#B4B4B4"/>
</svg>
