<svg width="69" height="40" viewBox="0 0 69 40" fill="none" xmlns="http://www.w3.org/2000/svg">
<path d="M50.6179 14.9568C56.1801 12.5098 59.8121 8.835 60.01 4.75831C60.01 4.75831 58.5416 3.62705 53.8003 1.88252C49.6369 0.350554 46.4606 -6.29425e-05 46.4606 -6.29425e-05L46.4752 9.083C46.4752 10.4403 45.9304 11.8256 44.9017 13.0522C41.7547 12.2923 38.2767 11.8659 34.6288 11.8647H34.6263C30.976 11.8659 27.4943 12.2935 24.3436 13.0546C23.315 11.8281 22.7689 10.4415 22.7689 9.083L22.7823 -6.29425e-05C22.7823 -6.29425e-05 19.6084 0.350554 15.4426 1.88252C10.7013 3.62705 9.23529 4.75831 9.23529 4.75831C9.43198 8.83623 13.0652 12.5122 18.6335 14.9592C13.0701 17.4062 9.43809 21.0809 9.2414 25.1564C9.2414 25.1564 10.7086 26.2889 15.4499 28.0322C19.6145 29.5642 22.7896 29.9148 22.7896 29.9148L22.775 20.8317C22.775 19.4745 23.3198 18.0879 24.3497 16.8625C27.4967 17.6236 30.9736 18.0488 34.6214 18.0488H34.6227C38.2742 18.0488 41.7572 17.6224 44.9066 16.8589C45.9353 18.0854 46.4801 19.4745 46.4801 20.8317L46.4679 29.9148C46.4679 29.9148 49.643 29.5642 53.8077 28.0322C58.5489 26.2889 60.0162 25.1564 60.0162 25.1564C59.8182 21.0785 56.185 17.4025 50.6179 14.9568ZM34.6239 17.0006H34.6202L34.5164 16.9982C31.2228 16.9982 28.5376 16.1919 26.5682 14.9592C28.5376 13.7241 31.224 12.9166 34.5237 12.9166L34.6251 12.9154H34.63L34.7338 12.9166C38.0287 12.9166 40.7127 13.7229 42.682 14.9555C40.7127 16.1894 38.0262 16.9982 34.7277 16.9982" fill="#B4B4B4"/>
<path d="M1.9547 39.9783C0.359209 39.9783 0.331111 38.7615 0.331111 38.2924V36.0787C0.331111 35.9443 0.320116 35.766 0.604764 35.766H1.42939C1.69693 35.766 1.67983 35.9566 1.67983 36.0787V38.2924C1.67983 38.45 1.70915 38.8727 2.28944 38.8727H3.67236C4.24165 38.8727 4.27464 38.45 4.27464 38.2924V36.0787C4.27464 35.9566 4.25876 35.766 4.52508 35.766H5.35581C5.65756 35.766 5.63069 35.9566 5.63069 36.0787V38.2924C5.63069 38.7615 5.60259 39.9783 4.00099 39.9783" fill="#B4B4B4"/>
<path d="M9.59602 39.7111C9.03284 38.9524 8.22898 37.9971 7.40925 36.988V39.683C7.40925 39.8003 7.43857 39.9786 7.15881 39.9786H6.38916C6.11062 39.9786 6.1436 39.8003 6.1436 39.683V36.0791C6.1436 35.9569 6.13139 35.7663 6.38916 35.7663H7.88936C8.31328 35.7663 8.91678 36.6203 9.3126 37.1835C9.61801 37.6135 10.1824 38.2597 10.5611 38.7447V36.0791C10.5611 35.9569 10.544 35.7663 10.8238 35.7663H11.6594C11.9282 35.7663 11.9111 35.9569 11.9111 36.0791V39.9786H10.3718C10.0419 39.9786 9.89655 40.0006 9.59602 39.7111Z" fill="#B4B4B4"/>
<path d="M15.9377 38.8705C16.6121 38.8705 16.5632 38.223 16.5632 37.9273C16.5632 36.9341 16.2834 36.895 15.8375 36.895H13.7179V38.8705H15.9377ZM12.4169 39.9797V35.7736H16.1344C16.3616 35.7736 17.8838 35.7467 17.8838 37.3458C17.8838 38.9816 18.0622 39.9797 16.1674 39.9797H14.1638L13.7289 39.0989V39.9797" fill="#B4B4B4"/>
<path d="M19.34 35.8004H22.7643C23.0551 35.8004 23.016 35.9898 23.016 36.3416C23.016 36.669 23.0599 36.8535 22.7643 36.8535H20.0583C19.9862 36.8535 19.7419 36.8144 19.7419 37.0709C19.7419 37.3275 19.6918 37.4289 19.9642 37.4289H22.3575C22.3575 37.4289 22.7032 38.0874 22.7423 38.1985C22.7985 38.2987 22.7924 38.394 22.581 38.394H20.1035L19.7187 37.6463V38.7507C19.7187 39.0073 19.9484 38.9572 20.0143 38.9572H22.8254C23.1051 38.9572 23.0819 39.1514 23.0819 39.4691C23.0819 39.8111 23.1051 39.9993 22.8254 39.9993H19.2667C18.971 39.9993 18.392 39.9101 18.392 38.9853V36.6641C18.392 36.4247 18.5202 35.8004 19.34 35.8004Z" fill="#B4B4B4"/>
<path d="M26.9238 36.8831H25.2563C24.9789 36.8831 24.9887 36.9784 24.9887 37.0627V37.8153H26.7064C27.5383 37.8153 27.5383 37.6076 27.5383 37.3901C27.5383 36.9552 27.5053 36.8831 26.9238 36.8831ZM23.9405 35.7726H27.6886C28.1907 35.7726 28.92 35.7678 28.92 37.1226C28.92 38.0095 28.7319 38.0535 28.33 38.3271C29.0055 38.4444 28.9164 39.3081 28.9164 39.7553C28.9164 39.9837 28.8333 39.9788 28.7649 39.9788H27.6666C27.4369 39.9788 27.4931 39.616 27.4931 39.4266C27.4931 38.9074 27.2036 38.9306 27.0912 38.9306H25.4737C25.3186 38.6619 25.0168 38.0596 25.0168 38.0596V39.8054C25.0168 39.9568 24.8653 39.9788 24.8103 39.9788H23.7072C23.767 39.9788 23.5936 39.9898 23.5936 39.8383V36.1355C23.5936 35.8728 23.778 35.7726 23.9405 35.7726Z" fill="#B4B4B4"/>
<path d="M34.9277 36.9654L34.2362 38.2261L34.2973 38.2872H35.5861L35.6533 38.2261C35.6081 38.1309 35.0511 37.0717 34.9949 36.9593L34.9277 36.9654ZM35.3736 35.8011C35.6472 35.8011 35.9135 35.9233 36.2043 36.4865C36.401 36.8872 37.7619 39.3464 38.0453 39.8607V40H36.6282L36.2202 39.2633H34.4976C34.4976 39.2633 34.2081 38.6 34.125 38.4167C34.0187 38.589 33.4495 39.6714 33.2528 40H31.832V39.9108C32.1215 39.3647 34.1018 35.8011 34.1018 35.8011" fill="#B4B4B4"/>
<path d="M41.762 36.8831H40.0944C39.8159 36.8831 39.8269 36.9784 39.8269 37.0627V37.8153H41.5446C42.3765 37.8153 42.3765 37.6076 42.3765 37.3901C42.3765 36.9552 42.3435 36.8831 41.762 36.8831ZM38.7787 35.7726H42.5268C43.0289 35.7726 43.7594 35.7678 43.7594 37.1226C43.7594 38.0095 43.5713 38.0535 43.1681 38.3271C43.8425 38.4444 43.7533 39.3081 43.7533 39.7553C43.7533 39.9837 43.6703 39.9788 43.6031 39.9788H42.5048C42.2751 39.9788 42.3313 39.616 42.3313 39.4266C42.3313 38.9074 42.0418 38.9306 41.9294 38.9306H40.3119C40.1555 38.6619 39.8538 38.0596 39.8538 38.0596V39.8054C39.8538 39.9568 39.7047 39.9788 39.6485 39.9788H38.5442C38.6052 39.9788 38.433 39.9898 38.433 39.8383V36.1355C38.433 35.8728 38.6175 35.7726 38.7787 35.7726Z" fill="#B4B4B4"/>
<path d="M47.034 39.9783C46.7542 39.4542 45.9785 38.009 45.4544 37.0622V39.6826C45.4544 39.7999 45.4703 39.9783 45.2052 39.9783H44.4453C44.1607 39.9783 44.1826 39.7999 44.1826 39.6826V36.0787C44.1826 35.9566 44.1668 35.7721 44.4453 35.7721H45.7561C45.9516 35.7721 46.2289 35.7269 46.5429 36.3524C46.7775 36.8533 47.2747 37.8929 47.6143 38.4439C47.9649 37.8929 48.4731 36.8533 48.7077 36.3524C49.0143 35.7269 49.2868 35.7721 49.5042 35.7721H50.8089C51.0777 35.7721 51.0496 35.9566 51.0496 36.0787V39.6826C51.0496 39.7999 51.0875 39.9783 50.8089 39.9783H50.0454C49.7669 39.9783 49.7889 39.7999 49.7889 39.6826V37.0622C49.2599 38.009 48.489 39.4542 48.1983 39.9783" fill="#B4B4B4"/>
<path d="M55.232 38.907C55.8636 38.907 55.8404 38.2558 55.8404 37.8197C55.8404 37.4288 55.9296 36.8155 55.1098 36.8155H53.7196C52.9059 36.8155 53.0012 37.4288 53.0012 37.8197C53.0012 38.2558 52.9621 38.907 53.5925 38.907H55.232ZM52.7337 39.9894C51.49 39.9894 51.545 38.6553 51.545 37.7928C51.545 37 51.4558 35.7624 53.0122 35.7502H55.7744C57.3357 35.7502 57.2343 37.0049 57.2343 37.7928C57.2343 38.6553 57.2966 39.9894 56.0346 39.9894" fill="#B4B4B4"/>
<path d="M59.3139 39.9783C57.7172 39.9783 57.6903 38.7615 57.6903 38.2924V36.0787C57.6903 35.9443 57.6793 35.766 57.964 35.766H58.7898C59.0561 35.766 59.0402 35.9566 59.0402 36.0787V38.2924C59.0402 38.45 59.0683 38.8727 59.6486 38.8727H61.0316C61.6008 38.8727 61.6338 38.45 61.6338 38.2924V36.0787C61.6338 35.9566 61.6167 35.766 61.8843 35.766H62.715C63.0168 35.766 62.9899 35.9566 62.9899 36.0787V38.2924C62.9899 38.7615 62.9618 39.9783 61.3602 39.9783" fill="#B4B4B4"/>
<path d="M66.8586 36.8831H65.1911C64.9125 36.8831 64.9235 36.9784 64.9235 37.0627V37.8153H66.6412C67.4731 37.8153 67.4731 37.6076 67.4731 37.3901C67.4731 36.9552 67.4401 36.8831 66.8586 36.8831ZM63.8741 35.7726H67.6234C68.1255 35.7726 68.8573 35.7678 68.8573 37.1226C68.8573 38.0095 68.6667 38.0535 68.2648 38.3271C68.9403 38.4444 68.8512 39.3081 68.8512 39.7553C68.8512 39.9837 68.7681 39.9788 68.6997 39.9788H67.6014C67.373 39.9788 67.4279 39.616 67.4279 39.4266C67.4279 38.9074 67.1384 38.9306 67.0272 38.9306H65.4085C65.2534 38.6619 64.9516 38.0596 64.9516 38.0596V39.8054C64.9516 39.9568 64.8001 39.9788 64.7452 39.9788H63.642C63.7019 39.9788 63.5296 39.9898 63.5296 39.8383V36.1355C63.5296 35.8728 63.7141 35.7726 63.8741 35.7726Z" fill="#B4B4B4"/>
</svg>
