<svg width="32" height="32" viewBox="0 0 32 32" fill="none" xmlns="http://www.w3.org/2000/svg">
<path d="M18.7587 2.20691H19.8621V4.41379H18.7587V2.20691Z" fill="#097FD9"/>
<path d="M16.5518 2.20691H17.6552V4.41379H16.5518V2.20691Z" fill="#097FD9"/>
<path d="M16 6.62065H27.0345C27.3389 6.62065 27.5862 6.37287 27.5862 6.06893C27.5862 5.76499 27.3389 5.51721 27.0345 5.51721H16C15.6956 5.51721 15.4483 5.76499 15.4483 6.06893C15.4483 6.37287 15.6956 6.62065 16 6.62065Z" fill="#097FD9"/>
<path d="M20.9655 2.20691H22.069V4.41379H20.9655V2.20691Z" fill="#097FD9"/>
<path d="M23.1724 2.20691H24.2759V4.41379H23.1724V2.20691Z" fill="#097FD9"/>
<path d="M25.3793 2.20691H26.4827V4.41379H25.3793V2.20691Z" fill="#097FD9"/>
<path d="M25.3793 0.551721C25.3793 0.247783 25.132 0 24.8276 0H18.2069C17.9025 0 17.6552 0.247783 17.6552 0.551721V1.10344H25.3793V0.551721Z" fill="#097FD9"/>
<path d="M31.9356 13.793H13.7931V12.6896H31.5819C31.0031 11.4869 29.8694 10.5953 28.4723 10.3625L25.379 9.84651V7.72412H17.6549V9.84651L14.5613 10.3623C13.165 10.595 12.0305 11.4872 11.4518 12.6893L12.6895 12.6896V13.793H11.0984C11.057 14.0314 11.0343 14.2763 11.0343 14.5258C11.0343 14.7415 11.0513 14.961 11.0851 15.1785L12.9378 27.0345H27.5858V28.138H13.1105L13.1563 28.4303C13.479 30.4988 15.233 32 17.3268 32H25.7079C27.8017 32 29.5556 30.4988 29.8784 28.4303L29.9237 28.138H28.6895V27.0345H30.0963L31.949 15.1773C31.9828 14.961 31.9998 14.7415 31.9998 14.5258C31.9998 14.2763 31.9771 14.0314 31.9357 13.793H31.9356ZM25.1687 24.0658C23.9268 25.3072 22.2958 25.9278 20.665 25.9278C19.0342 25.9278 17.4032 25.3071 16.1613 24.0658L15.7712 23.6756L24.7784 14.6684L25.1686 15.0585C27.6518 17.5418 27.6518 21.5821 25.1686 24.0658H25.1687Z" fill="#097FD9"/>
<path d="M24.1069 16.901C24.5719 17.6143 24.8273 18.4525 24.8273 19.3104C24.8273 21.7441 22.8473 23.7241 20.4136 23.7241C19.5557 23.7241 18.7175 23.4687 18.0042 23.0037L17.3527 23.6552C19.419 25.3302 22.4677 25.2066 24.3895 23.2854C26.3112 21.3643 26.4341 18.315 24.7592 16.2493L24.1069 16.901Z" fill="#097FD9"/>
<path d="M23.7241 19.3102C23.7241 18.7452 23.5756 18.1925 23.3037 17.7036L18.8072 22.2001C19.2966 22.472 19.8489 22.6206 20.4138 22.6206C22.2394 22.6206 23.7241 21.1358 23.7241 19.3102Z" fill="#097FD9"/>
<path d="M3.31046 17.6551H6.01339C5.75674 16.3978 4.64297 15.4482 3.31046 15.4482H0.607529C0.863685 16.7056 1.97794 17.6551 3.31046 17.6551Z" fill="#097FD9"/>
<path d="M10.7546 20.2119C9.72852 19.3897 8.47551 18.8917 7.16891 18.7818C7.14477 15.4723 6.90044 12.1372 4.41377 12.1372V13.2406C5.87189 13.2406 6.04529 16.0904 6.06622 18.7859C2.67411 19.0689 0 21.9155 0 25.3782C0 29.0289 2.96996 31.9989 6.62065 31.9989C8.87212 31.9989 10.917 30.8794 12.1477 29.0058C12.1162 28.8723 12.0871 28.7375 12.0654 28.5996L10.7546 20.2119ZM6.62065 30.8964C3.57856 30.8964 1.10344 28.4212 1.10344 25.3791H2.20688C2.20688 27.8129 4.1869 29.7929 6.62065 29.7929V30.8964ZM6.62065 22.0688C5.38322 22.0688 4.41377 21.3417 4.41377 20.4137H5.51721C5.51721 20.6388 5.94701 20.9654 6.62065 20.9654C7.2943 20.9654 7.7241 20.6388 7.7241 20.4137H8.82754C8.82754 21.3417 7.85809 22.0688 6.62065 22.0688Z" fill="#097FD9"/>
</svg>
