<svg width="91" height="32" viewBox="0 0 91 32" fill="none" xmlns="http://www.w3.org/2000/svg">
<g clip-path="url(#clip0_1_91)">
<path d="M10.7617 31.9868C8.08638 31.8805 5.89754 31.1484 4.18605 29.7888C3.85942 29.529 3.08109 28.7502 2.81997 28.4218C2.12594 27.5491 1.65409 26.6998 1.33937 25.7574C0.370927 22.8567 0.869348 19.0503 2.765 14.8728C4.38807 11.2963 6.89255 7.7492 11.262 2.83645C11.9056 2.11355 13.8223 -0.000610352 13.8347 -0.000610352C13.8393 -0.000610352 13.7348 0.180341 13.6034 0.400693C12.4673 2.30367 11.4952 4.54519 10.9656 6.48574C10.1149 9.5995 10.2175 12.2716 11.2661 14.3437C11.9895 15.7711 13.2296 17.0076 14.624 17.6911C17.0653 18.8872 20.6394 18.9861 25.0043 17.9806C25.3048 17.9109 40.1961 13.9579 58.0962 9.1959C75.9963 4.43341 90.6443 0.539956 90.6466 0.543162C90.6516 0.547292 49.0595 18.3448 27.4685 27.5779C24.0491 29.0398 23.1348 29.409 21.5273 29.9734C17.418 31.4164 13.7371 32.105 10.7617 31.9868Z" fill="#B4B4B4"/>
</g>
<defs>
<clipPath id="clip0_1_91">
<rect width="89.7893" height="32" fill="white" transform="translate(0.8573)"/>
</clipPath>
</defs>
</svg>
